<?xml version="1.0" encoding="UTF-8" standalone="no"?>
<svg
   width="750"
   height="625"
   viewBox="0 0 750 625"
   version="1.1"
   sodipodi:docname="drawing.svg"
   id="svg685"
   inkscape:version="1.2.1 (9c6d41e, 2022-07-14)"
   xmlns:inkscape="http://www.inkscape.org/namespaces/inkscape"
   xmlns:sodipodi="http://sodipodi.sourceforge.net/DTD/sodipodi-0.dtd"
   xmlns="http://www.w3.org/2000/svg"
   xmlns:svg="http://www.w3.org/2000/svg">
  <defs
     id="defs687" />
  <sodipodi:namedview
     pagecolor="#b1b1b1"
     bordercolor="#2a2a2a"
     borderopacity="1"
     inkscape:pageshadow="0"
     inkscape:pageopacity="0"
     inkscape:pagecheckerboard="true"
     inkscape:showpageshadow="false"
     inkscape:document-units="px"
     showgrid="false"
     units="px"
     width="750px"
     height="1140px"
     borderlayer="true"
     inkscape:zoom="0.99035769"
     inkscape:cx="688.64008"
     inkscape:cy="324.12532"
     inkscape:current-layer="layer1"
     id="namedview670"
     inkscape:blackoutopacity="0.0"
     inkscape:deskcolor="#494949"
     inkscape:window-maximized="1"
     inkscape:window-width="1920"
     inkscape:window-height="1031"
     inkscape:window-x="0"
     inkscape:window-y="0">
    <inkscape:page
       x="0"
       y="0"
       width="750"
       height="625"
       id="page1792"
       inkscape:label="About Screen" />
    <inkscape:page
       x="800.33966"
       y="-1.2340232"
       width="960"
       height="360"
       id="page1794"
       inkscape:label="Website Download Splash" />
    <inkscape:page
       x="931.97632"
       y="401.65384"
       width="700"
       height="220"
       id="page4330"
       inkscape:label="Welcome Screen" />
  </sodipodi:namedview>
  <g
     inkscape:label="Background"
     inkscape:groupmode="layer"
     id="bg"
     sodipodi:insensitive="true">
    <rect
       style="fill:#ffffff;stroke-width:1.109;stop-color:#000000"
       id="rect194"
       width="750"
       height="625"
       x="0"
       y="0" />
    <path
       id="rect194-3"
       style="fill:#ffffff;stroke-width:1.109;stop-color:#000000"
       d="M 800.33966,-1.2340232 V 358.76598 h 54.57812 v -71.65039 h 850.84372 v 71.65039 h 54.5781 V -1.2340232 Z" />
    <rect
       style="fill:#ffffff;stroke-width:1.109;stop-color:#000000"
       id="rect1266"
       width="700"
       height="220"
       x="931.97632"
       y="401.65381" />
    <text
       xml:space="preserve"
       style="font-size:21.3333px;line-height:1.25;font-family:Aclonica;-inkscape-font-specification:Aclonica;text-align:start;letter-spacing:0px;word-spacing:0px;fill:#ffffff;stroke-width:0.264583"
       x="1006.1695"
       y="-39.8265"
       id="text7093-6-5-5"><tspan
         sodipodi:role="line"
         id="tspan7091-7-3-6"
         style="font-family:'Liberation Sans';-inkscape-font-specification:'Liberation Sans';text-align:start"
         x="1006.1695"
         y="-39.8265">Optional formats to consider when making your graphic</tspan></text>
  </g>
  <g
     id="layer1"
     inkscape:groupmode="layer"
     inkscape:label="Layer 1">
    <path
       style="fill:#000000"
       id="path1663"
       d="m 143.2996,149.02268 c -4.8182,8.11999 -9.95051,16.0514 -14.61534,24.26305 -4.34603,7.65047 -5.39853,9.92283 -9.41282,17.77371 -5.34072,10.70639 -9.42644,21.9832 -11.75792,33.72608 -1.00566,5.06515 -1.22123,7.55415 -1.82016,12.51263 -0.75017,6.26652 -0.49844,12.57648 -0.82035,18.86396 -0.22781,3.72172 -0.37258,7.44759 -0.46599,11.17491 -0.19623,1.98 0.0556,3.88277 0.43915,5.81615 1.2587,4.64547 4.14909,8.76697 6.80992,12.72804 1.88163,2.98268 4.20643,5.67361 6.84807,8.00377 3.56874,3.01786 7.14035,6.03212 10.70928,9.0506 10.41015,8.23215 20.52722,16.82466 30.66605,25.38591 9.40278,8.1213 19.03353,15.98269 28.23471,24.33429 7.26529,6.59389 13.7357,13.99201 20.0968,21.44294 7.55556,9.15078 14.44808,18.82685 21.46268,28.39243 8.84776,12.21108 17.91212,24.24517 27.21934,36.10813 8.36427,10.89921 17.29521,21.34072 26.00767,31.95873 7.5544,9.41325 14.99756,18.91021 22.68907,28.21311 7.50282,8.50271 15.92626,16.18652 24.75654,23.28875 5.54191,4.53061 12.49038,6.37232 19.2662,8.19009 14.26964,3.47891 28.91189,4.84199 43.51642,6.00438 7.5261,0.37594 15.76209,1.02598 22.60941,-2.82279 0.93523,-0.52568 1.77274,-1.20888 2.65912,-1.81331 0.82666,-0.76535 1.68184,-1.501 2.47998,-2.29605 1.83606,-1.82896 3.53793,-3.78792 5.3203,-5.66923 3.96937,-4.18973 8.00352,-8.30408 12.09171,-12.37776 9.83406,-9.56696 20.12622,-18.64286 30.01853,-28.14752 4.32359,-4.3235 8.42684,-8.92293 11.94463,-13.93623 2.70965,-3.8616 4.6584,-7.39436 7.12167,-11.42122 1.53659,-2.51196 3.10381,-5.00505 4.65572,-7.50758 8.69752,-13.34205 17.66141,-26.67349 28.34134,-38.542 1.9841,-2.20492 4.09954,-4.28802 6.14931,-6.43202 12.72128,-12.80497 28.12341,-22.24312 43.2784,-31.81642 8.55026,-5.49233 17.0436,-11.1274 24.8703,-17.63045 4.69837,-3.90379 5.91182,-5.19991 10.27786,-9.36353 10.78848,-11.06646 21.35192,-22.35146 31.64067,-33.88333 9.21106,-10.30681 17.78629,-21.14703 25.15081,-32.85526 3.65469,-5.81027 5.45962,-9.18895 8.74275,-15.04633 3.37672,-6.38697 6.84402,-12.74849 9.11823,-19.63156 1.34661,-4.07562 1.36688,-4.72592 2.33289,-9.08886 1.42715,-7.78924 2.49698,-15.74479 1.67771,-23.6721 -0.14204,-1.37437 -0.41274,-2.73238 -0.61911,-4.09857 -1.11076,-6.68962 -4.29335,-12.62985 -7.60787,-18.44098 -2.9665,-4.37344 -5.93113,-8.75114 -8.92079,-13.11067 -4.92578,-6.99383 -9.97368,-13.9046 -15.38537,-20.53102 -4.46758,-5.49909 -9.28696,-10.72648 -14.94781,-15.01886 -3.30492,-2.50597 -5.50031,-3.82192 -8.95529,-6.03705 -7.04212,-4.33051 -14.89135,-7.02697 -22.44749,-10.27991 -6.12335,-2.63611 -12.96868,-5.75798 -19.01409,-8.48474 -24.83967,-11.10935 -48.06007,-25.341078 -71.5095,-39.039974 -14.55803,-8.292782 -29.0467,-16.789154 -44.27828,-23.812686 -8.07979,-3.725721 -9.73798,-4.217285 -17.82883,-7.32348 -11.64456,-4.104117 -23.71173,-7.003724 -35.8843,-9.041025 -7.88966,-1.32048 -11.65197,-1.615877 -19.5846,-2.479885 -11.18743,-1.112701 -22.45687,-1.574981 -33.69049,-0.957487 -5.95081,0.327107 -10.13952,0.843838 -16.06764,1.468434 -16.37319,1.950534 -32.77283,4.180694 -48.76011,8.288087 -4.83917,1.319756 -9.30617,3.327134 -12.48148,7.370565 -2.72595,3.47123 -3.88709,7.792742 -5.14027,11.92377 -1.71713,6.354042 -4.62366,12.171001 -9.12197,17.029959 -3.04409,3.288142 -5.4631,4.948142 -8.981,7.697065 -10.52498,7.357406 -22.15882,12.834137 -33.71655,18.328557 -12.41299,5.88532 -24.21293,12.93675 -36.03662,19.90198 -12.62761,7.49461 -25.55934,14.46341 -38.86072,20.68326 -9.30739,4.30404 -19.0592,7.70165 -27.95312,12.85382 -0.56129,0.36789 -1.12258,0.73578 -1.68386,1.10367 -2.23307,1.46827 -0.15663,4.62631 2.07644,3.15804 v 0 c 0.5018,-0.3311 1.00359,-0.66219 1.50539,-0.99329 8.78527,-5.115 18.46958,-8.40617 27.65665,-12.69879 13.40758,-6.2747 26.44856,-13.29191 39.17759,-20.85023 11.7275,-6.9086 23.42964,-13.90614 35.741,-19.74503 11.80852,-5.61389 23.6916,-11.219375 34.42503,-18.767057 3.85417,-3.028299 6.2786,-4.679344 9.61133,-8.32381 4.78391,-5.231378 7.92294,-11.486261 9.77876,-18.286188 1.0563,-3.519987 1.99387,-7.352069 4.22175,-10.37078 2.65307,-3.594821 6.53814,-5.21062 10.72355,-6.35523 15.80471,-4.073754 32.02789,-6.248726 48.21457,-8.189681 5.77999,-0.610036 9.99566,-1.128592 15.79372,-1.449577 11.05631,-0.612087 22.1482,-0.157513 33.15924,0.937296 7.76557,0.843985 11.56372,1.144517 19.28107,2.434322 11.95331,1.997767 23.80574,4.834981 35.24274,8.857942 7.95155,3.048997 9.58725,3.533523 17.53382,7.195645 15.14476,6.979359 29.54604,15.433064 44.02072,23.675279 23.56374,13.765514 46.90002,28.061199 71.86201,39.221799 6.13102,2.76529 12.90793,5.85653 19.11064,8.52669 7.35506,3.16622 14.99888,5.78364 21.86608,9.97514 3.34421,2.14072 5.41442,3.379 8.6139,5.79047 5.46726,4.12072 10.09289,9.17958 14.40111,14.47422 5.34731,6.54268 10.3277,13.37227 15.19549,20.27764 2.93164,4.27308 5.82932,8.57007 8.75476,12.84574 3.08602,5.40755 6.10087,10.91546 7.15468,17.13989 0.19405,1.24985 0.44912,2.49175 0.58216,3.74956 0.80171,7.57975 -0.24198,15.18659 -1.5957,22.63582 -0.91192,4.15826 -0.91951,4.73015 -2.19644,8.61763 -2.19775,6.69087 -5.59038,12.85961 -8.86085,19.06858 -3.23393,5.77224 -5.00827,9.09488 -8.60491,14.81943 -7.25973,11.55487 -15.72502,22.24502 -24.81184,32.41372 -10.2205,11.45713 -20.71677,22.66605 -31.42948,33.66495 -4.24848,4.05604 -5.44471,5.33352 -10.01649,9.13608 -7.71988,6.42101 -16.10523,11.97581 -24.54106,17.39699 -15.41602,9.73825 -31.06729,19.36019 -43.99277,32.40102 -2.10024,2.2001 -4.26716,4.33843 -6.30072,6.60031 -10.79902,12.01152 -19.87367,25.49233 -28.66913,38.99267 -1.56115,2.51767 -3.13778,5.02581 -4.68345,7.55301 -2.28907,3.74267 -4.36773,7.47687 -6.88572,11.07378 -3.40158,4.85908 -7.37288,9.31696 -11.5595,13.50479 -9.90789,9.52151 -20.22065,18.60908 -30.06771,28.19564 -6.56341,6.54141 -12.86896,13.33138 -19.38031,19.91608 -0.69907,0.49687 -1.35634,1.05851 -2.09719,1.4906 -6.20832,3.6209 -13.88127,2.75119 -20.71538,2.48198 -14.3756,-1.14308 -28.78904,-2.47543 -42.83777,-5.88745 -6.26464,-1.67718 -12.74069,-3.31073 -17.8766,-7.48514 -8.63496,-6.93742 -16.86684,-14.45127 -24.21166,-22.75133 -7.68862,-9.2992 -15.12768,-18.79344 -22.68013,-28.20226 -8.69507,-10.59661 -17.60832,-21.01695 -25.95589,-31.8942 -9.28193,-11.83073 -18.32161,-23.8321 -27.14507,-36.01022 -7.06969,-9.6407 -14.01705,-19.39227 -21.63619,-28.61157 -6.46592,-7.57216 -13.04567,-15.08761 -20.43132,-21.78772 -9.23673,-8.37932 -18.89668,-16.27535 -28.33612,-24.42307 -10.13807,-8.5606 -20.25371,-17.15343 -30.66382,-25.38402 -3.55279,-3.00456 -7.10859,-6.00461 -10.66084,-9.00893 -2.41413,-2.09203 -4.48972,-4.5745 -6.20129,-7.26938 -2.38789,-3.5433 -5.00824,-7.2384 -6.23879,-11.35514 -0.33142,-1.66414 -0.56529,-3.27273 -0.3678,-4.98466 0.0924,-3.69459 0.23633,-7.38772 0.46226,-11.07675 0.31591,-6.20124 0.0745,-12.42339 0.79814,-18.6047 0.57751,-4.80747 0.78534,-7.22034 1.75383,-12.1294 2.25639,-11.43706 6.23839,-22.4156 11.43713,-32.84094 3.95714,-7.7421 5.01966,-10.03243 9.30369,-17.57516 4.70814,-8.28943 9.90277,-16.28669 14.74255,-24.49744 1.19115,-2.3924 -2.1922,-4.07695 -3.38336,-1.68455 z" />
    <path
       style="fill:#000000"
       id="path1665"
       d="m 248.04175,161.75558 c -12.32482,5.08756 -24.09122,11.41381 -35.84883,17.67246 -8.67962,4.9277 -17.90529,9.20119 -25.8956,15.26419 -1.10354,0.83736 -2.12631,1.77614 -3.18946,2.66421 -3.48604,3.00748 -6.48667,6.44257 -8.80851,10.41158 -0.94711,1.93943 -1.581,4.14414 -1.05862,6.31004 0.18308,0.75908 0.51549,1.47416 0.77324,2.21124 1.88322,3.3185 4.12308,6.73054 7.08091,9.21311 6.1201,5.13672 13.49388,8.56796 20.57332,12.11272 9.60148,4.55983 19.60797,8.17856 29.33021,12.45961 2.71277,1.08789 5.4024,2.23074 8.1279,3.28678 0.38966,0.15098 2.82182,1.12726 3.41317,1.1543 0.70774,0.0324 1.40475,-0.18569 2.10712,-0.27854 0.69147,-0.64911 1.50546,-1.18854 2.07442,-1.94733 0.64842,-0.86476 1.02357,-1.90405 1.52962,-2.85912 0.62413,-1.17792 1.18639,-2.39001 1.8609,-3.53982 3.36319,-5.73309 7.43172,-10.9894 11.42483,-16.28579 4.12054,-5.07039 7.74476,-10.61988 12.26171,-15.365 1.6482,-1.73146 2.47692,-2.34612 4.30405,-3.89014 5.50938,-3.91825 10.73351,-8.19503 16.02431,-12.39832 2.59373,-2.29672 6.9252,-4.85789 6.36966,-9.01448 -0.51857,-3.87995 -3.09639,-5.32971 -5.74803,-8.05352 -13.41264,-11.31747 -29.35325,-18.89948 -45.14578,-26.25507 -4.89523,-2.39677 -2.71665,-1.29124 -6.55342,-3.2815 -2.37256,-1.23019 -4.11231,2.12512 -1.73975,3.35531 v 0 c 3.9367,2.04033 1.70999,0.91138 6.6975,3.35236 15.40178,7.17256 30.95606,14.5436 44.08511,25.51753 0.70635,0.66418 5.41041,3.94441 4.7535,6.2599 -0.66045,2.32799 -3.60632,3.52552 -5.06983,5.16018 -5.32231,4.22839 -10.58178,8.52341 -16.11701,12.4744 -2.03438,1.72903 -2.85108,2.32876 -4.69047,4.26835 -4.57658,4.82587 -8.27604,10.43899 -12.44973,15.59505 -5.27499,7.00005 -11.32024,14.3722 -14.71117,22.55272 -0.0899,0.21681 -0.0725,0.46377 -0.10868,0.69566 -0.0428,0.10028 -0.0193,0.30421 -0.12831,0.30085 -0.54162,-0.0167 -2.84477,-0.95174 -3.05938,-1.03486 -2.67914,-1.03758 -5.32242,-2.16191 -7.9897,-3.22919 -9.66706,-4.25287 -19.61012,-7.86165 -29.16195,-12.38056 -6.6537,-3.32471 -13.71911,-6.53074 -19.50483,-11.31534 -2.59074,-2.14246 -4.56505,-5.10904 -6.29706,-7.94591 -0.82138,-2.02705 -0.99214,-3.31126 0.0105,-5.30733 2.07623,-3.60628 4.83333,-6.67899 7.96885,-9.41385 0.97103,-0.81778 1.90268,-1.68476 2.91311,-2.45334 7.86593,-5.98322 16.97359,-10.17085 25.51934,-15.0348 11.61275,-6.18171 23.23278,-12.43144 35.39996,-17.46986 2.50236,-0.93839 1.17528,-4.47727 -1.32709,-3.53888 z" />
    <path
       style="fill:#000000"
       id="path1667"
       d="m 463.35296,177.49866 c -12.23605,10.32114 -23.4891,21.66629 -34.5454,33.22128 -6.37898,7.10081 -12.84181,14.17502 -18.63224,21.77692 -1.88282,2.47183 -5.04181,6.61564 -5.91981,9.85011 -0.41715,1.53674 -0.22475,3.17676 -0.33713,4.76514 0.64627,1.57929 1.00437,3.31005 1.93879,4.73786 3.70131,5.65565 11.77177,10.25481 17.52872,13.16263 10.07357,5.08813 12.27125,5.41687 23.51063,9.38388 12.22204,3.74857 24.57806,7.10276 37.10304,9.68464 4.17568,0.86077 10.18802,2.00851 14.6266,2.1973 1.65809,0.0705 3.31657,-0.13142 4.97486,-0.19713 1.34344,-0.34623 2.79246,-0.41227 4.03032,-1.0387 8.12008,-4.10922 9.73738,-15.88672 10.88214,-23.78444 1.18361,-16.61668 -2.49903,-33.04391 -6.06734,-49.16598 -1.36109,-7.54254 -4.49679,-14.41418 -8.49864,-20.88916 -1.31283,-2.12415 -4.27413,-6.409 -6.14436,-8.3618 -0.95566,-0.99786 -2.09045,-1.80722 -3.13567,-2.71083 -6.0454,-3.46332 -13.00444,-4.44723 -19.87191,-4.09843 -2.66882,0.14077 -2.46974,3.91505 0.19908,3.77428 v 0 c 5.89993,-0.32424 11.91745,0.46815 17.22335,3.2025 0.88262,0.73698 1.8491,1.38382 2.64786,2.21095 4.73683,4.90506 9.79746,13.94393 11.95464,20.273 0.82427,2.41838 1.29033,4.94439 1.9355,7.41659 3.47316,15.67859 7.08263,31.65242 6.01604,47.81374 -0.74612,5.29235 -1.43799,10.52717 -3.88486,15.37068 -0.7218,1.42878 -2.62595,4.40515 -4.2388,5.29944 -0.97368,0.53987 -2.142,0.60817 -3.21301,0.91226 -1.47009,0.0715 -2.93964,0.27405 -4.41027,0.21462 -4.318,-0.17452 -10.15277,-1.29367 -14.19963,-2.12708 -12.37937,-2.5494 -24.59134,-5.8636 -36.67295,-9.56119 -11.14074,-3.91821 -12.9509,-4.11927 -22.91264,-9.1127 -5.6023,-2.80822 -11.99497,-6.33008 -15.9441,-11.43778 -0.69704,-0.90154 -1.06718,-2.01388 -1.60077,-3.02082 -0.007,-1.10101 -0.28965,-2.23546 -0.0202,-3.30302 0.75712,-3.0002 3.75783,-6.87484 5.445,-9.09094 5.72322,-7.51746 12.11374,-14.51134 18.41869,-21.53367 10.986,-11.48302 22.16703,-22.75734 34.32799,-33.01152 1.9959,-1.77729 -0.51757,-4.59993 -2.51348,-2.82263 z" />
    <path
       style="fill:#000000"
       id="path1669"
       d="m 322.02836,243.61403 c -5.02166,9.91022 -10.8852,19.35477 -16.82864,28.73049 -2.5557,4.25972 -6.24959,8.41724 -5.76974,13.78824 0.61559,6.89044 6.16816,11.50949 10.70132,15.98785 7.95973,7.06844 17.0464,12.62862 26.16606,18.03809 2.29861,1.36339 4.22673,-1.88732 1.92813,-3.25071 v 0 c -8.85966,-5.25477 -17.69492,-10.64335 -25.44778,-17.48577 -3.61462,-3.51683 -8.7254,-7.49192 -9.58726,-12.91046 -0.74614,-4.69102 3.15613,-8.41215 5.20149,-12.14374 5.92838,-9.35294 11.80248,-18.76567 16.78648,-28.66546 1.47681,-2.22743 -1.67325,-4.31596 -3.15006,-2.08853 z" />
    <path
       style="fill:#000000"
       id="path1671"
       d="m 268.79507,342.94766 c 4.17198,10.63859 10.14558,20.51873 16.8204,29.76573 1.90681,2.64161 3.96495,5.17063 5.94743,7.75595 11.27813,13.86988 25.89039,24.46122 42.12305,31.83989 3.0069,1.36681 6.12616,2.47156 9.18925,3.70735 3.39654,0.87313 6.75277,1.92159 10.18962,2.6194 13.38999,2.71868 28.56773,3.06382 42.02413,0.56279 3.23524,-0.6013 6.38721,-1.58644 9.58081,-2.37967 3.00259,-1.16978 6.09479,-2.1315 9.00778,-3.50933 11.7991,-5.58094 23.03637,-14.71131 32.46806,-23.64369 2.42081,-2.29266 4.70214,-4.72825 7.05321,-7.09237 6.73437,-7.15472 12.74141,-14.91881 18.13115,-23.11943 1.46668,-2.23411 -1.69283,-4.30831 -3.15951,-2.0742 v 0 c -5.24198,7.99418 -11.10258,15.5512 -17.65244,22.5294 -2.29676,2.31263 -4.52513,4.69524 -6.89027,6.93787 -9.08747,8.61677 -19.97015,17.52299 -31.32787,22.94292 -2.76273,1.31839 -5.69736,2.24131 -8.54603,3.36197 -3.0481,0.76584 -6.05551,1.71711 -9.14428,2.29753 -13.00158,2.44318 -27.66161,2.11484 -40.60953,-0.47578 -3.27528,-0.65532 -6.47537,-1.64225 -9.71306,-2.46337 -2.96772,-1.19269 -5.98965,-2.25848 -8.90315,-3.57808 -15.72342,-7.12159 -29.89428,-17.34395 -40.82246,-30.76407 -1.93914,-2.52528 -3.95263,-4.99517 -5.81744,-7.57584 -6.53929,-9.0496 -12.39987,-18.71628 -16.47579,-29.13583 -1.05421,-2.45583 -4.52727,-0.96496 -3.47306,1.49086 z" />
    <path
       style="fill:#000000"
       id="path1673"
       d="m 276.02979,349.45936 c 30.37416,1.2904 60.77939,1.82704 91.17784,2.15115 30.20924,0.12469 60.43235,-0.0101 90.61971,1.31575 2.08026,0.12676 4.16051,0.25351 6.24076,0.38026 2.66759,0.16242 2.8973,-3.61012 0.22971,-3.77254 v 0 c -2.10159,-0.12787 -4.20318,-0.25574 -6.30477,-0.38361 -30.22924,-1.32547 -60.49398,-1.19716 -90.74513,-1.31917 -30.4108,-0.32399 -60.82796,-0.8642 -91.21466,-2.15137 -2.67253,-0.002 -2.67599,3.77708 -0.003,3.77953 z" />
    <path
       style="fill:#000000"
       id="path1675"
       d="m 135.13166,158.18961 c -3.75041,-16.35584 -4.88382,-33.22824 -5.77239,-49.9469 0.58798,-9.252374 0.0859,-4.93217 1.351,-12.977727 0.41137,-2.64068 -3.32312,-3.222441 -3.73449,-0.581761 v 0 c -1.31826,8.537858 -0.80005,3.956914 -1.39069,13.760388 0.90109,16.90262 2.0542,33.95792 5.84193,50.49466 0.52939,2.61957 4.23402,1.87092 3.70464,-0.74866 z" />
    <path
       style="fill:#000000"
       id="path1677"
       d="m 203.45748,120.07832 c 0.23562,-1.37404 0.50823,-2.74225 0.70686,-4.12212 0.72204,-5.01582 1.05679,-9.25691 1.82541,-14.32432 1.22165,-8.054159 3.03105,-15.878123 5.167,-23.72872 0.63372,-1.908887 1.26744,-3.817774 1.90116,-5.726662 0.84085,-2.536804 -2.74673,-3.725952 -3.58759,-1.189148 v 0 c -0.65362,1.974948 -1.30725,3.949896 -1.96087,5.924844 -2.17633,8.020901 -4.02077,16.011362 -5.26848,24.238576 -0.65354,4.30932 -1.18153,9.77695 -1.80304,14.17402 -0.17862,1.2637 -0.42098,2.51757 -0.63147,3.77636 -0.69097,2.58166 2.96005,3.55883 3.65102,0.97717 z" />
    <path
       style="fill:#000000"
       id="path1679"
       d="m 253.87542,70.240949 c 2.45422,-7.771803 4.23509,-15.724946 6.97776,-23.412129 2.38574,-6.686786 2.95553,-7.544979 5.8503,-13.730541 1.13139,-2.42123 -2.29274,-4.021268 -3.42414,-1.600038 v 0 c -2.98249,6.391935 -3.56572,7.270932 -6.02098,14.163485 -2.72252,7.642827 -4.51621,15.541225 -6.93013,23.274511 -0.92257,2.508242 2.62462,3.812954 3.54719,1.304712 z" />
    <path
       style="fill:#000000"
       id="path1681"
       d="m 366.02518,38.564304 c 5.9825,-8.297118 12.01435,-16.580093 19.0392,-24.04149 1.43481,-1.523964 2.9597,-2.960527 4.43954,-4.44079 1.2486,-1.1565634 2.4972,-2.3131269 3.7458,-3.4696904 1.96014,-1.8166617 -0.60901,-4.5887204 -2.56915,-2.7720586 v 0 c -1.2836,1.1902848 -2.56721,2.3805697 -3.85081,3.5708545 -1.52822,1.5314852 -3.10251,3.0183485 -4.58466,4.5944555 -7.14139,7.594058 -13.28369,16.015853 -19.36349,24.460436 -1.48371,2.22284 1.65986,4.321124 3.14357,2.098283 z" />
    <path
       style="fill:#000000"
       id="path1683"
       d="m 472.60099,61.771043 c 6.62687,-6.310357 13.67798,-12.122488 21.35896,-17.110735 2.26469,-1.470755 4.61003,-2.813436 6.91504,-4.220153 2.28076,-1.393036 0.31071,-4.618518 -1.97005,-3.225482 v 0 c -2.36354,1.444732 -4.76892,2.823146 -7.09063,4.334195 -7.82495,5.092752 -15.01911,11.011843 -21.77573,17.443884 -1.96455,1.811895 0.59786,4.590186 2.56241,2.778291 z" />
    <path
       style="fill:#000000"
       id="path1685"
       d="m 561.46196,109.05493 c 11.20373,-12.090656 23.79352,-22.74079 36.72332,-32.9178 2.09992,-1.653109 -0.23793,-4.622838 -2.33785,-2.969729 v 0 c -13.04396,10.270227 -25.7477,21.015034 -37.05443,33.211429 -1.89229,1.88724 0.77667,4.56334 2.66896,2.6761 z" />
    <path
       style="fill:#000000"
       id="path1687"
       d="m 624.30315,148.73456 c 23.19265,-8.96081 45.92416,-19.05469 68.72911,-28.94565 2.45185,-1.06341 0.94795,-4.53085 -1.50389,-3.46744 v 0 c -22.74979,9.86703 -45.42603,19.93714 -68.56196,28.87785 -2.4998,0.94521 -1.16306,4.48046 1.33674,3.53524 z" />
  </g>
</svg>
