<?xml version="1.0" encoding="UTF-8" standalone="no"?>
<!-- Created with Inkscape (http://www.inkscape.org/) -->

<svg
   width="150.0px"
   height="150.0px"
   viewBox="0 0 150.0 150.0"
   version="1.1"
   id="SVGRoot"
   sodipodi:docname="ej.svg"
   inkscape:version="1.2.1 (9c6d41e, 2022-07-14)"
   xmlns:inkscape="http://www.inkscape.org/namespaces/inkscape"
   xmlns:sodipodi="http://sodipodi.sourceforge.net/DTD/sodipodi-0.dtd"
   xmlns="http://www.w3.org/2000/svg"
   xmlns:svg="http://www.w3.org/2000/svg">
  <sodipodi:namedview
     id="namedview45"
     pagecolor="#ffffff"
     bordercolor="#000000"
     borderopacity="0.25"
     inkscape:showpageshadow="2"
     inkscape:pageopacity="0.0"
     inkscape:pagecheckerboard="0"
     inkscape:deskcolor="#d1d1d1"
     inkscape:document-units="px"
     showgrid="true"
     inkscape:zoom="4.2935905"
     inkscape:cx="66.145107"
     inkscape:cy="66.378012"
     inkscape:window-width="1920"
     inkscape:window-height="1031"
     inkscape:window-x="0"
     inkscape:window-y="0"
     inkscape:window-maximized="1"
     inkscape:current-layer="layer3">
    <inkscape:grid
       type="xygrid"
       id="grid51" />
  </sodipodi:namedview>
  <defs
     id="defs40">
    <inkscape:path-effect
       effect="powerstroke"
       id="path-effect499"
       is_visible="true"
       lpeversion="1"
       offset_points="1.2091723,3.4935796"
       not_jump="true"
       sort_points="true"
       interpolator_type="CentripetalCatmullRom"
       interpolator_beta="0.75"
       start_linecap_type="round"
       linejoin_type="spiro"
       miter_limit="4"
       scale_width="1"
       end_linecap_type="round" />
    <inkscape:path-effect
       effect="simplify"
       id="path-effect497"
       is_visible="true"
       lpeversion="1"
       steps="1"
       threshold="0.0047745358"
       smooth_angles="0"
       helper_size="0"
       simplify_individual_paths="false"
       simplify_just_coalesce="false"
       step="1" />
  </defs>
  <g
     inkscape:groupmode="layer"
     id="layer3"
     inkscape:label="Layer 2">
    <path
       style="fill:#483e37;stroke-width:0.232905"
       d="M 95.441247,63.911746 C 92.377141,61.624962 83.380782,56.936299 77.906825,54.773272 72.308811,52.561223 66.370468,51.595757 61.276946,52.069557 c -3.267811,0.303973 -4.830261,0.716135 -7.410654,1.954873 -3.890176,1.86751 -6.53598,4.010807 -8.380458,6.788793 -0.458681,0.690823 -0.859763,1.256041 -0.891293,1.256041 -0.03153,0 -0.774375,-0.335546 -1.650765,-0.745658 -0.989695,-0.463135 -1.974286,-0.749934 -2.598605,-0.756942 -0.891165,-0.01 -1.280793,-0.222611 -3.435314,-1.874527 -1.336579,-1.024783 -2.432333,-2.001018 -2.435008,-2.16941 -0.0027,-0.168393 0.309558,-0.570737 0.693852,-0.894099 1.371272,-1.153849 0.615597,-3.341387 -1.154267,-3.341387 -1.001102,0 -1.165994,-0.28754 -1.171606,-2.043051 -0.003,-0.931242 0.06607,-1.038891 1.077836,-1.680537 1.342862,-0.851618 3.239491,-1.480719 6.255501,-2.074915 4.311279,-0.849382 7.340337,-1.236875 8.458462,-1.082051 1.773581,0.245585 2.729589,0.198118 3.56455,-0.176983 0.432729,-0.1944 1.863426,-0.420266 3.179327,-0.501923 1.315902,-0.08166 5.298583,-0.521339 8.850402,-0.977072 5.798641,-0.744022 7.198966,-0.841014 13.718027,-0.950172 6.463111,-0.108221 14.987545,0.162839 17.204163,0.547057 0.546489,0.09473 0.834579,0.361335 1.262906,1.168737 0.790609,1.490311 1.540722,2.021285 2.647057,1.873739 1.116531,-0.148907 1.735731,-0.696628 1.924381,-1.702251 0.12093,-0.644575 0.23375,-0.763304 0.64505,-0.678796 0.27417,0.05633 1.18897,0.212768 2.0329,0.347635 4.5832,0.732438 8.32042,2.921059 10.46598,6.129165 0.86652,1.295657 0.95667,1.558355 0.8369,2.438909 -0.18717,1.376106 -1.37872,3.63037 -2.48793,4.70682 -1.07401,1.042284 -3.87512,2.544287 -7.5545,4.05085 -2.64384,1.082547 -7.761003,2.721557 -8.456344,2.708537 -0.216733,-0.0041 -0.678544,-0.219695 -1.026249,-0.479193 z"
       id="path1315" />
    <path
       style="fill:#2b2200;stroke-width:0.232905"
       d="m 54.932358,39.538257 c 0.371104,-0.737983 1.220179,-2.671031 1.886834,-4.295662 1.201017,-2.926865 1.227368,-2.966427 2.881729,-4.326556 6.604899,-5.430202 14.37784,-10.660882 19.20432,-12.92325 l 1.93004,-0.904687 0.464669,0.539256 c 0.897538,1.041603 4.367645,6.389822 5.865655,9.0403 0.832587,1.473126 2.628409,4.906997 3.990711,7.630824 l 2.476916,4.952414 -0.992498,-0.177855 c -0.545872,-0.09782 -5.813636,-0.175736 -11.70614,-0.173146 l -10.713644,0.0047 -6.637802,0.848598 c -3.65079,0.466728 -7.242538,0.911203 -7.981662,0.987721 l -1.343862,0.139122 z"
       id="path1321" />
    <path
       style="fill:#f4d7d7;stroke-width:0.232905"
       d="m 104.03226,105.49461 c -5.94198,-0.79601 -13.876344,-2.86602 -19.720539,-5.14493 -2.744167,-1.070069 -14.207224,-6.783819 -14.207224,-7.081576 0,-0.09097 0.157211,-0.295872 0.349358,-0.45534 0.195452,-0.162211 0.349358,-0.669907 0.349358,-1.152445 0,-1.448993 -1.556138,-2.455791 -2.794864,-1.808233 -0.475975,0.248822 -0.896102,0.250441 -2.301531,0.0089 -1.885796,-0.324146 -1.811251,-0.285123 -5.548792,-2.904751 -2.79829,-1.961312 -3.845173,-2.277598 -4.769607,-1.440997 -0.405033,0.366551 -0.517916,0.327614 -2.014269,-0.694798 -2.14998,-1.469006 -4.481974,-3.939044 -5.358779,-5.675984 -1.038323,-2.056906 -1.67474,-4.516409 -1.826891,-7.060215 -0.161783,-2.704846 0.210621,-4.389265 1.594524,-7.212181 1.790269,-3.651827 5.714657,-6.803272 10.210417,-8.199385 1.568467,-0.487071 2.186652,-0.541692 6.055538,-0.535046 3.84293,0.0066 4.592927,0.07467 6.937359,0.629626 4.248815,1.005748 11.033281,3.937651 17.124633,7.400398 2.475616,1.407312 2.515631,1.443468 2.363602,2.135654 -0.08506,0.387258 -0.02313,1.173843 0.137615,1.747966 0.396337,1.415573 0.956237,1.616124 3.246814,1.162978 l 1.744934,-0.3452 2.098004,1.527686 c 12.03877,8.76617 21.31269,21.052188 21.31269,28.234866 0,3.361067 -0.93986,4.995147 -3.63662,6.322757 -1.49156,0.73429 -1.59142,0.74999 -5.17237,0.81345 -2.25195,0.0399 -4.61802,-0.0648 -6.17336,-0.27315 z M 64.736568,83.969629 c 1.54004,-0.391621 3.455912,-1.654058 5.085287,-3.350885 1.545296,-1.609264 1.738165,-2.188018 0.981358,-2.944824 -0.660764,-0.660764 -1.426627,-0.578576 -2.471706,0.26525 -0.497982,0.402084 -1.639073,1.214341 -2.535758,1.805017 -1.609791,1.06042 -1.659689,1.075421 -3.95939,1.190407 l -2.329053,0.116452 -0.06934,1.455659 -0.06934,1.455658 1.233866,0.0036 c 0.678627,0.0019 1.391078,0.109773 1.583225,0.239581 0.364571,0.246292 0.820523,0.204129 2.550851,-0.23588 z m 3.44646,-7.998794 c 0.65734,-0.594901 0.693251,-1.806025 0.08335,-2.811078 -0.242378,-0.399414 -0.512695,-1.066701 -0.600705,-1.48286 -0.315744,-1.492998 -2.186268,-1.975946 -3.308101,-0.854113 -0.566328,0.566328 -0.592495,0.693002 -0.443519,2.147086 0.210698,2.056537 0.521871,2.630629 1.743695,3.216995 1.136287,0.545317 1.741205,0.493568 2.525279,-0.21603 z M 56.452836,73.917222 c 0.789591,-0.359761 1.064318,-1.161928 1.132915,-3.307963 0.05345,-1.672058 0.01243,-1.861553 -0.491527,-2.270827 -0.596251,-0.484228 -1.892301,-0.589373 -2.599503,-0.210889 -0.57288,0.306595 -0.923579,1.611747 -0.925202,3.443199 -0.0011,1.247193 0.08411,1.551651 0.570378,2.037921 0.619087,0.619087 1.402133,0.72355 2.312939,0.308559 z m 4.608241,-6.177876 c 0.866133,-0.783839 0.553755,-1.46141 -1.781897,-3.865066 -1.213619,-1.248955 -2.395305,-2.270827 -2.625968,-2.270827 -0.771177,0 -1.454655,0.677783 -1.454655,1.442535 0,0.556677 0.350973,1.109555 1.566552,2.467751 2.249001,2.512864 3.348904,3.082689 4.295968,2.225607 z m 13.644052,-5.706815 c 0.421738,-0.884347 0.04541,-1.717995 -0.917929,-2.033439 -1.755919,-0.574972 -6.792101,-1.889218 -7.239466,-1.889218 -1.157524,0 -1.785255,1.61897 -0.926664,2.389945 0.543434,0.487978 6.943776,2.249282 7.975353,2.194729 0.629021,-0.03326 0.880459,-0.183399 1.108706,-0.662017 z"
       id="path1530" />
    <path
       style="fill:#00ffff"
       id="path1654"
       d="m -0.73173412,23.29163 c 3.09999162,0.26163 6.21392012,0.06611 9.31235902,-0.109988 0.9566765,-0.07904 1.9143261,-0.147075 2.8700301,-0.237114 2.152584,-0.2028 3.62664,-0.37099 5.761343,-0.722012 3.151702,-0.518253 6.253328,-1.263175 9.3614,-1.989726 5.938826,-1.37916 11.906884,-2.668399 17.943411,-3.5461 3.831536,-0.557099 5.096126,-0.643575 8.90675,-1.028097 6.818772,-0.589078 13.680596,-0.737496 20.515763,-0.352573 1.415686,0.07972 2.828491,0.204279 4.242737,0.306419 1.826338,0.224452 3.657172,0.414938 5.479015,0.673357 4.280088,0.607107 10.832221,1.724167 15.002523,2.48037 4.944283,0.896551 10.402833,1.954825 15.319533,3.045391 2.19739,0.4874 4.3809,1.035403 6.57136,1.553104 4.58354,1.272694 5.9484,1.452108 10.16497,3.343944 1.34516,0.603528 2.64468,1.30762 3.92702,2.035138 3.14873,1.786376 3.37441,2.217982 6.33247,4.093909 0.95645,0.60656 1.94548,1.160173 2.91821,1.740259 3.3975,1.893715 6.90135,3.04841 10.76177,3.503015 2.40322,0.283004 3.39939,0.232379 5.82045,0.263856 2.68371,-0.09932 5.39973,-0.115401 8.04453,-0.642514 0.94721,-0.188781 1.18269,-0.286514 2.06032,-0.562761 0.54812,-0.208715 1.08568,-0.442841 1.62038,-0.683251 1.70585,-0.768035 0.61968,-3.180463 -1.08616,-2.412428 v 0 c -0.44232,0.199461 -0.88776,0.391716 -1.33715,0.574794 -3.01663,0.974885 -6.1261,0.976582 -9.27001,1.080683 -2.27552,-0.02518 -3.18847,0.02361 -5.44098,-0.231869 -3.52747,-0.400092 -6.71295,-1.435363 -9.81936,-3.162591 -0.93256,-0.554666 -1.88145,-1.082767 -2.79768,-1.664 -3.06445,-1.943989 -3.29893,-2.391668 -6.5934,-4.248116 -1.36576,-0.76961 -2.75064,-1.512379 -4.18263,-2.150341 -4.37263,-1.948037 -5.80472,-2.146521 -10.5144,-3.452503 -2.21291,-0.5227 -4.41885,-1.075878 -6.63874,-1.568101 -4.94352,-1.096141 -10.43733,-2.161186 -15.408696,-3.062423 -4.204741,-0.76226 -10.821477,-1.890142 -15.1324,-2.499575 -1.865649,-0.263746 -3.740531,-0.45745 -5.610797,-0.686174 -1.442794,-0.103733 -2.884132,-0.230238 -4.328383,-0.311197 -6.95871,-0.390076 -13.944406,-0.237235 -20.886198,0.363908 -3.879618,0.392409 -5.160366,0.48006 -9.062204,1.048471 -6.097142,0.888219 -12.125714,2.188326 -18.12438,3.58181 -3.03442,0.709667 -6.062661,1.43963 -9.13939,1.947725 -2.083725,0.344109 -3.494509,0.504642 -5.599231,0.703546 -0.93317,0.08819 -1.8682439,0.154924 -2.8023658,0.232386 -2.9600628,0.169251 -5.9347685,0.360843 -8.89691603,0.118993 -1.86137157,-0.187294 -2.12624487,2.445083 -0.26487329,2.632376 z" />
  </g>
  <g
     inkscape:label="Layer 1"
     inkscape:groupmode="layer"
     id="layer1">
    <path
       style="fill:#800000"
       id="path220"
       d="m 55.684025,88.615079 c 4.20663,3.026393 8.53116,5.91306 13.055345,8.447609 3.521862,1.973026 7.063778,3.695912 10.670037,5.501382 6.295911,2.77742 12.910058,4.78222 19.668128,6.06731 3.435285,0.65324 7.538815,1.19028 11.075755,1.16428 1.44592,-0.0106 2.88251,-0.23308 4.32377,-0.34963 2.74596,-1.14357 4.51575,-1.42072 6.38531,-3.87523 1.51464,-1.98854 2.16778,-4.59258 2.0938,-7.053034 -0.10637,-3.537753 -1.11605,-5.278089 -2.37902,-8.551261 -0.86102,-1.505041 -1.6305,-3.066283 -2.58306,-4.515122 -1.03504,-1.574294 -2.18815,-3.070334 -3.3692,-4.538262 -3.62453,-4.504903 -7.84663,-8.476706 -12.40075,-12.029215 -1.5789,-1.231638 -3.238965,-2.355516 -4.858445,-3.533275 -4.60467,-3.201148 -9.49885,-5.96173 -14.570429,-8.348801 -1.937438,-0.911906 -5.761616,-2.564911 -7.905633,-3.240134 -1.246402,-0.392533 -2.532505,-0.645613 -3.798757,-0.96842 -3.48441,-0.710685 -7.044912,-0.969993 -10.586484,-0.569211 -1.034009,0.117014 -2.069456,0.269875 -3.075483,0.535912 -2.577586,0.681625 -3.465489,1.299619 -5.789349,2.503926 -0.80458,0.555537 -1.656609,1.047966 -2.41374,1.666611 -2.242043,1.831951 -4.067116,4.154338 -5.297469,6.773173 -1.0381,2.20962 -1.055154,2.866265 -1.585775,5.211241 -0.04043,0.969554 -0.146954,1.938605 -0.121283,2.908662 0.0888,3.355386 1.086444,7.227055 2.828756,10.117129 0.439839,0.729586 0.993306,1.384326 1.489958,2.076488 2.209198,2.547562 4.982506,4.495698 7.932271,6.093807 1.40109,0.759075 2.139072,1.054727 3.562114,1.685057 2.33746,1.042381 4.823947,1.586232 7.33601,1.990402 0.815142,0.118687 0.800065,0.114699 1.584328,0.235498 0.212326,0.0327 0.422892,0.119954 0.636752,0.09957 0.502418,-0.0479 1.014017,-0.117063 1.483721,-0.301715 0.348822,-0.13713 0.614517,-0.429295 0.921776,-0.643943 2.039287,-1.727346 -0.403549,-4.611333 -2.442836,-2.883987 v 0 c 0.209449,0.0034 0.83037,0.105469 0.621133,0.09548 -0.738163,-0.03525 -1.465953,-0.294778 -2.205241,-0.332553 -2.192807,-0.351886 -4.367405,-0.803991 -6.408701,-1.716096 -1.252679,-0.551457 -1.966311,-0.838306 -3.193933,-1.497773 -2.494783,-1.340174 -4.867038,-2.951503 -6.779342,-5.058512 -0.387133,-0.513251 -0.820893,-0.994453 -1.1614,-1.539755 -1.478319,-2.36744 -2.293552,-5.536323 -2.427612,-8.303298 -0.03577,-0.738279 0.02389,-1.478096 0.03583,-2.217145 0.402153,-1.923081 0.391635,-2.376903 1.208572,-4.203348 0.939692,-2.100889 2.379646,-4.007856 4.145663,-5.489182 0.627962,-0.526731 1.338447,-0.946408 2.00767,-1.419612 1.766272,-0.942199 2.747179,-1.590821 4.696159,-2.12938 0.862143,-0.238235 1.751322,-0.376974 2.63935,-0.484 3.154435,-0.380174 6.328105,-0.160291 9.436204,0.461809 1.130388,0.280323 2.279574,0.493514 3.391165,0.840968 2.043613,0.638779 5.710587,2.221606 7.549017,3.084681 4.885235,2.293439 9.600778,4.945509 14.036288,8.024763 1.55183,1.125018 3.14242,2.198409 4.65547,3.375054 4.330545,3.3677 8.336005,7.124676 11.794985,11.389026 1.09398,1.348705 2.16073,2.724191 3.12551,4.168145 0.86025,1.287508 1.56034,2.675104 2.34051,4.012656 1.30424,3.220078 2.66821,5.780411 1.97781,9.367026 -0.13848,0.71945 -0.34215,1.45382 -0.7379,2.07039 -1.10223,1.71726 -2.38514,2.0194 -4.14443,2.88885 -1.26804,0.11378 -2.53107,0.32698 -3.80413,0.34132 -3.33981,0.0376 -7.19809,-0.46465 -10.439265,-1.07593 -6.46137,-1.21863 -12.78797,-3.12166 -18.812391,-5.761184 -3.440042,-1.721524 -7.068197,-3.488947 -10.424994,-5.367182 -4.415073,-2.470373 -8.634779,-5.285664 -12.739576,-8.236981 -2.14603,-1.592785 -4.398569,1.442161 -2.252539,3.034946 z" />
    <path
       style="fill:#ff0000"
       id="path552"
       d="m 57.396154,72.189631 c 0.02357,-0.705759 0.101034,-1.407908 0.171884,-2.109966 0.267664,-2.659092 -3.49286,-3.037626 -3.760524,-0.378534 v 0 c -0.07478,0.744693 -0.155363,1.489588 -0.182577,2.238003 -0.177128,2.666653 3.594089,2.917151 3.771217,0.250497 z" />
    <path
       style="fill:#ff0000"
       id="path554"
       d="m 63.9418,72.676937 c 0.162034,0.62865 0.147941,1.305296 0.34934,1.924688 0.101694,0.312756 0.133643,0.699032 0.388476,0.906922 0.573517,0.467868 1.315119,0.679522 1.972679,1.019283 2.672463,0.01876 2.698994,-3.760674 0.02653,-3.779435 v 0 c 0.451086,0.338312 0.921526,0.65225 1.353259,1.014935 0.02514,0.02112 -0.02616,0.123122 -0.03588,0.09175 -0.200079,-0.645409 -0.190254,-1.343495 -0.364242,-1.995169 -0.577721,-2.60934 -4.267885,-1.792318 -3.690163,0.817021 z" />
    <path
       style="fill:#ff0000"
       id="path556"
       d="m 34.171117,55.012615 c -0.646224,-1.261859 -1.240778,-2.587958 -1.449336,-4.002889 -0.04115,-0.279158 -0.04496,-0.562554 -0.06744,-0.843832 0.06251,-0.429138 0.04066,-0.718341 0.307874,-1.072209 0.09542,-0.126372 0.23093,-0.217722 0.357679,-0.312646 0.788021,-0.590157 1.664601,-0.972513 2.561672,-1.362213 2.662495,-0.895802 5.468401,-1.266184 8.225095,-1.763915 3.475152,-0.627421 7.013346,-0.69456 10.52749,-0.934753 4.795254,-0.343136 9.547153,-1.096764 14.319118,-1.656703 5.293359,-0.564118 10.633324,-0.503779 15.949335,-0.426911 5.474151,0.102342 10.929301,0.577279 16.363836,1.216834 2.92395,0.358614 5.88437,0.918733 8.48291,2.381904 0.41625,0.234378 0.80172,0.519636 1.20259,0.779455 1.34133,0.99129 2.55155,2.140618 3.45929,3.54601 0.16343,0.253026 0.33175,0.505029 0.46193,0.776661 0.0948,0.197883 0.1396,0.416075 0.2094,0.624112 0.0363,0.200969 0.1016,0.398814 0.10895,0.602905 0.007,0.186406 -0.0325,0.372256 -0.0672,0.555529 -0.22369,1.181975 -0.76308,2.201322 -1.36936,3.22506 -0.53734,0.774211 -1.13546,1.51722 -1.90642,2.073696 -1.08462,0.782876 -2.3261,1.3483 -3.52388,1.927781 -2.11699,1.016139 -4.29508,1.895262 -6.50974,2.672998 -1.886885,0.642803 -3.808265,1.172576 -5.735285,1.679027 -1.28027,0.223888 -2.52053,0.736935 -3.81538,0.881625 -0.0242,-8.33e-4 -0.0958,-0.0088 -0.0725,-0.0025 1.71561,0.464149 0.9188,-0.10888 1.90808,1.933701 0.36317,-2.647739 -3.3813,-3.161345 -3.74447,-0.513607 v 0 c 0.66321,1.700241 0.40391,2.486366 2.42767,2.326159 1.44059,-0.215818 2.83664,-0.659032 4.25773,-0.9701 2.02563,-0.532868 4.045145,-1.091132 6.028055,-1.768837 2.34975,-0.827446 4.66198,-1.758973 6.90805,-2.839195 1.50622,-0.735082 3.02929,-1.463538 4.36785,-2.489111 1.07808,-0.826 1.92915,-1.890132 2.67749,-3.011667 0.21456,-0.373993 0.44685,-0.738354 0.64366,-1.121978 0.84541,-1.647829 1.42886,-3.490557 1.21838,-5.363923 -0.0442,-0.393442 -0.18304,-0.77039 -0.27456,-1.155585 -0.16651,-0.40573 -0.30322,-0.825015 -0.49954,-1.217191 -0.17711,-0.353794 -0.39698,-0.685166 -0.61728,-1.013805 -1.2043,-1.796517 -2.7564,-3.293431 -4.51425,-4.547972 -0.53034,-0.331758 -1.04289,-0.693828 -1.59103,-0.995277 -2.97775,-1.63761 -6.34058,-2.323981 -9.67975,-2.729541 -5.563105,-0.653644 -11.147305,-1.138823 -16.750864,-1.242305 -5.481395,-0.07845 -10.986905,-0.135551 -16.444457,0.452309 -4.711177,0.553548 -9.402768,1.296056 -14.136489,1.63974 -3.652707,0.250453 -7.329847,0.324701 -10.940909,0.986067 -3.053379,0.551301 -6.165281,0.958626 -9.091105,2.030659 -1.442066,0.65399 -2.940003,1.305168 -4.024724,2.516776 -1.048735,1.171413 -1.431321,2.505621 -1.427142,4.044459 0.04591,0.430485 0.06671,0.864394 0.137743,1.291454 0.294922,1.773201 1.011631,3.446205 1.83761,5.029745 1.298249,2.336015 4.601872,0.500014 3.303624,-1.836001 z" />
    <path
       style="fill:#ff0000"
       id="path558"
       d="m 40.055557,64.306283 c 0.800864,0.279457 1.555298,0.645356 2.297726,1.051628 0.126729,0.07475 0.254055,0.148492 0.380187,0.224244 1.280651,0.769127 -0.277075,0.178965 -0.10235,-1.42033 0.05447,-0.498566 0.604878,-0.800164 0.907317,-1.200246 0.130966,-0.05434 0.323968,-0.0391 0.392897,-0.163014 0.04405,-0.07919 -0.174663,-0.04838 -0.262141,-0.07203 -0.167758,-0.04536 -0.33574,-0.08989 -0.503563,-0.135005 -0.526152,-0.141449 -1.026802,-0.29085 -1.531267,-0.495112 -1.04507,-0.474435 -1.976558,-1.166493 -2.905056,-1.833089 -1.38176,-0.989845 -2.713751,-2.044355 -4.024813,-3.125272 -0.939593,-0.745076 -1.79435,-1.576935 -2.567796,-2.491183 -0.712752,-0.945892 0.120622,-0.638803 -0.451986,1.842932 -0.04156,0.180142 -0.576219,0.317435 -0.402736,0.381327 0.287536,0.105896 2.040476,-0.434608 2.20464,-0.480309 0.333789,-0.132864 0.667578,-0.265728 1.001367,-0.398592 2.473898,-1.011059 1.044045,-4.50968 -1.429853,-3.498621 v 0 c -0.2123,0.09032 -0.4246,0.180634 -0.636899,0.270951 -0.225961,0.07245 -0.446591,0.164316 -0.677881,0.21734 -0.632073,0.144904 -2.189169,0.198764 -2.511906,0.632786 -1.282177,1.724288 -0.822553,2.379718 0.02354,3.477704 0.921041,1.082565 1.932505,2.075793 3.045748,2.9623 1.376939,1.134417 2.775792,2.241276 4.226609,3.280474 1.181729,0.845924 2.373753,1.708968 3.719981,2.277065 0.651845,0.252853 1.299079,0.464095 1.976316,0.639556 0.411684,0.10666 1.227608,0.329917 1.64821,0.325842 0.394955,-0.0038 0.783533,-0.100466 1.175299,-0.150699 0.417005,-0.44996 1.120787,-0.750383 1.251015,-1.349881 0.37908,-1.745083 -1.019308,-2.381352 -2.132492,-3.035769 -0.832065,-0.454125 -1.677832,-0.873826 -2.573926,-1.188245 -2.441819,-1.086248 -3.978006,2.367005 -1.536188,3.453253 z" />
    <path
       style="fill:#ff0000"
       id="path712"
       d="m 55.8932,34.012296 c 2.922226,-2.747771 6.149457,-5.150044 9.342499,-7.569462 3.626184,-2.789709 7.447227,-5.310009 11.45242,-7.518512 1.382527,-0.706709 1.412989,-0.747731 2.740672,-1.338836 0.335618,-0.149422 1.2235,-0.544563 1.657386,-0.64579 0.08189,-0.0191 0.262132,-0.0712 0.251969,0.01228 -0.01287,0.105756 -0.182387,0.110162 -0.27358,0.165243 2.111747,2.528497 3.792065,5.376133 5.489554,8.189969 2.229586,3.848174 4.2404,7.815623 6.19413,11.808947 1.182432,2.455776 2.396986,4.897548 3.747229,7.265971 0.580191,0.971093 1.150827,2.320018 2.791051,1.915439 1.53032,-0.377471 1.57568,-1.508377 1.76665,-2.562742 0.40771,-2.641247 -3.327575,-3.217836 -3.735285,-0.576589 v 0 c -0.07211,0.976761 -0.03251,-0.583318 1.323284,-0.584692 0.638691,-6.48e-4 1.106956,0.654163 1.710141,0.864157 0.34362,0.119628 -1.284377,-1.289819 -0.573241,-0.928904 -1.312705,-2.29766 -2.48516,-4.67122 -3.634884,-7.053717 C 94.140619,31.362394 92.078418,27.296714 89.790157,23.354522 88.63959,21.448204 87.49488,19.536616 86.234401,17.69967 85.626152,16.813245 84.711472,15.499214 83.911305,14.726579 83.500318,14.329734 83.020717,14.01073 82.575423,13.652805 c -0.563739,-0.151 -1.110782,-0.392201 -1.691219,-0.453 -0.515277,-0.05397 -1.488041,0.308307 -1.95545,0.491514 -1.397051,0.547591 -2.739297,1.232048 -4.068016,1.924603 -4.160691,2.301766 -8.139282,4.911698 -11.90781,7.814639 -3.282386,2.487817 -6.597093,4.960758 -9.601976,7.784987 -1.9776,1.797641 0.564648,4.594389 2.542248,2.796748 z" />
    <path
       style="fill:#ff0000"
       id="path714"
       d="m 49.177788,40.469021 c -0.321825,0.926385 -0.663428,1.847069 -0.847488,2.811326 0.391834,0.689408 0.555709,1.57358 1.175502,2.068226 0.539723,0.430742 1.825187,0.168879 2.4354,-0.115043 0.317004,-0.147497 0.598208,-0.362126 0.897313,-0.543188 2.19811,-1.520107 0.04836,-4.628705 -2.149756,-3.108598 v 0 c -0.0084,0.03158 -0.0037,0.07007 -0.02514,0.09473 -0.03382,0.03892 -0.175329,0.05922 -0.130015,0.08383 1.553435,0.843594 0.338871,-0.828576 1.530689,2.104936 -0.03024,-0.194058 -0.01927,-0.05895 0.106307,-0.442008 0.19317,-0.589233 0.383427,-1.179594 0.594066,-1.762947 0.842351,-2.536308 -2.74453,-3.727572 -3.586881,-1.191264 z" />
    <path
       style="fill:#ff0000"
       id="path716"
       d="m 52.740945,42.886838 c 1.082006,-1.297248 1.856343,-2.80543 2.56199,-4.329781 0.547355,-1.256267 1.064006,-2.525603 1.547172,-3.807829 0.437334,-1.096179 0.92719,-2.166466 1.448495,-3.224529 0.27345,-0.400102 0.384177,-0.927462 0.707887,-1.296739 0.01894,-0.02161 -0.0505,0.07104 -0.02425,0.08272 0.03582,0.01594 0.0724,-0.03012 0.108594,-0.04517 0.993896,-0.613437 1.660692,-1.543821 2.282969,-2.504659 1.435397,-2.254339 -1.752721,-4.284298 -3.188118,-2.029958 v 0 c -0.36625,0.59116 -0.698539,1.14043 -1.332322,1.488546 -0.198965,0.15768 -0.413251,0.297752 -0.596893,0.473038 -0.626377,0.597878 -0.944898,1.416045 -1.348249,2.161846 -0.575567,1.168272 -1.113757,2.351662 -1.595007,3.562526 -0.451378,1.198578 -0.934484,2.384803 -1.443653,3.560085 -0.577741,1.264383 -1.211185,2.518535 -2.111412,3.588748 -1.641305,2.109154 1.341489,4.43031 2.982794,2.321156 z" />
    <path
       id="path728"
       style="fill:#ff0000"
       d="m -21.246094,109.99609 c 0.01793,0.0568 0.04165,0.0772 0.05859,0.13672 0.0051,-0.0384 0.01064,-0.0768 0.01563,-0.11523 -0.02474,-0.007 -0.04955,-0.0141 -0.07422,-0.0215 z m -1.410156,0.14649 c 0.0066,0.0341 0.01214,0.0682 0.02148,0.10156 0.0074,0.0266 0.02327,-0.0646 0.002,-0.082 -0.0078,-0.006 -0.01564,-0.0131 -0.02344,-0.0195 z m 105.632812,0.7793 c -1.032388,0.004 -2.063971,0.0331 -3.095703,0.0879 -0.771232,0.0409 -1.540259,0.11192 -2.310547,0.16796 -3.711244,0.33225 -7.381302,1.05018 -10.880859,2.34766 -0.754957,0.27991 -1.492019,0.60392 -2.238281,0.90625 -3.30716,1.40093 -6.380061,3.27869 -9.59961,4.85742 -0.573966,0.28145 -1.157698,0.54271 -1.736328,0.81446 -2.370141,1.04657 -4.800417,1.99634 -7.339843,2.54687 -1.712661,0.37128 -3.362768,0.58261 -5.09961,0.83984 -6.279455,0.85288 -12.621322,0.94375 -18.947265,0.91993 -3.534083,-0.0415 -7.078119,-0.0536 -10.591797,-0.48243 -2.0877358,-0.25482 -2.3804483,-0.34905 -4.4433596,-0.74609 -0.9898413,-0.24696 -1.9620831,-0.54976 -2.921875,-0.88867 -0.7805733,0.0279 -1.7634044,0.0144 -2.6484375,-0.01 -0.092819,0.81739 -0.18503295,1.63476 -0.28906252,2.45118 -0.34587742,2.69404 -0.81832403,5.36914 -1.35351563,8.03124 1.67080985,0.60851 3.36454475,1.15454 5.10156245,1.55665 2.5028608,0.46846 2.9264239,0.59235 5.4414068,0.88867 3.87144,0.45614 7.772834,0.50129 11.666015,0.53711 6.900718,0.0221 13.8185,-0.0939 20.666016,-1.04297 2.412854,-0.36458 3.930113,-0.54826 6.302734,-1.08789 3.209942,-0.73006 6.29384,-1.91914 9.292969,-3.25781 0.687399,-0.32518 1.380069,-0.64108 2.0625,-0.97657 2.936535,-1.4436 5.74601,-3.13805 8.742187,-4.46093 0.524518,-0.21932 1.043005,-0.45567 1.574219,-0.65821 2.597049,-0.99018 5.320389,-1.52675 8.083984,-1.77734 4.137927,-0.31925 8.291584,-0.30801 12.41211,0.25586 5.25209,0.66174 10.475578,1.51343 15.677738,2.49414 4.90219,0.92689 9.79761,1.93029 14.5957,3.31055 4.74756,1.41893 9.45022,2.98919 14.08203,4.75195 3.23457,1.24401 6.46224,2.50336 9.6543,3.85351 2.24991,0.92678 4.20621,0.59628 5.64453,-0.38476 -0.0119,-0.14203 -0.022,-0.28383 -0.0352,-0.42578 -0.16023,-1.94731 -0.24736,-3.9 -0.40429,-5.84766 -0.0866,-1.15832 -0.17748,-2.31744 -0.22071,-3.47852 -0.22057,-0.11698 -0.4199,-0.24627 -0.66601,-0.34765 -3.27454,-1.38378 -6.58471,-2.67706 -9.90235,-3.95313 -4.90001,-1.86902 -9.87791,-3.52326 -14.90039,-5.02929 -5.17239,-1.49872 -10.45126,-2.58728 -15.73828,-3.58985 -5.43035,-1.02585 -10.884714,-1.90787 -16.367186,-2.60156 -3.074788,-0.37828 -6.172352,-0.58504 -9.269532,-0.57226 z" />
    <path
       style="fill:#a05a2c"
       id="path783"
       d="m 12.04462,7.5459868 c 6.122505,-0.7344103 12.284079,-1.2606367 18.453711,-1.3262232 1.27872,-0.013594 2.557466,0.024729 3.836199,0.037094 4.08687,0.093678 8.146274,0.5784272 12.209823,0.9771969 2.222848,0.2181355 3.155005,0.2911323 5.33533,0.4772069 2.662568,0.2109487 1.407914,0.1150088 3.763788,0.2900753 0.0027,1.98e-4 0.0029,-0.00357 2.8e-4,-0.00377 v 0 C 53.287904,7.8225029 54.542544,7.9184417 51.880004,7.7074954 49.699721,7.5214244 48.767544,7.4484259 46.54474,7.2302947 42.481075,6.8315135 38.421555,6.346753 34.334567,6.2530781 33.055785,6.2407139 31.77699,6.2023911 30.49822,6.2159856 24.328435,6.2815763 18.166708,6.8078154 12.044052,7.5422501 c -0.0026,4.014e-4 -0.0021,0.00414 5.68e-4,0.00374 z" />
    <path
       style="fill:#ff0000"
       id="path785"
       d="m 57.90824,7.8764816 c -6.24058,0.8741051 -12.554305,0.9917466 -18.845496,1.080428 -0.0027,3.77e-5 -0.0026,0.00382 5.3e-5,0.00378 v 0 c 6.291382,-0.088685 12.605298,-0.206335 18.846065,-1.0804793 0.0026,-4.402e-4 0.002,-0.00417 -6.22e-4,-0.00373 z" />
    <circle
       id="path797"
       style="fill:#ff0000;stroke:#000000"
       cx="-64.695877"
       cy="0.7495929"
       r="0.049832199" />
    <path
       style="fill:#ff0000"
       id="path801"
       d="m 36.582807,43.561269 c 0.244939,0.700133 0.286528,1.479968 0.588167,2.161723 0.07054,0.159434 0.08659,0.503188 0.254661,0.456842 0.847676,-0.233749 1.57356,-0.785291 2.36034,-1.177936 -0.05968,-0.278994 -0.108629,-0.560499 -0.179032,-0.836981 -0.213921,-0.840086 -0.560365,-1.896341 -0.824146,-2.692575 -0.582288,-1.757659 -1.209213,-3.49899 -1.841209,-5.239181 -0.284154,-0.744338 -0.718352,-1.898586 -1.032293,-2.663127 -0.343029,-0.835378 -0.987216,-2.927249 -2.594565,-1.970654 -0.575927,0.342755 -0.351518,1.293493 -0.527276,1.940239 0.690662,2.232983 1.603979,4.395047 2.51345,6.546972 0.61802,1.25533 1.043757,2.012995 2.959735,0.647925 0.385119,-0.274385 -0.122031,-2.238225 -0.217049,-2.668195 -0.03739,-0.198583 -0.09077,-0.394814 -0.112171,-0.59575 -0.0321,-0.301384 0.07823,-0.617117 0.138267,-0.905996 0.11063,-0.532283 0.148141,-0.801769 0.236467,-1.344646 0.03139,-1.547153 -0.592962,-2.907893 -1.255227,-4.262437 -0.826255,-1.678418 -3.199896,-0.509917 -2.373641,1.168501 v 0 c 0.425622,0.85751 0.849803,1.717917 1.017264,2.670749 -0.206386,1.279444 -0.601731,2.547235 -0.234048,3.841609 0.04891,0.220366 0.09844,0.440595 0.146736,0.661098 0.03566,0.16281 -0.01244,0.370676 0.10511,0.488833 0.06394,0.06428 0.08034,-0.197999 0.169845,-0.212452 2.204362,-0.355959 2.408475,0.540854 1.855529,-0.519526 -0.845885,-1.99984 -1.684432,-4.010663 -2.36385,-6.073473 -1.374807,1.680685 -0.0036,0.585398 -2.498549,0.333675 -0.160436,-0.01619 0.158732,0.281093 0.227061,0.42715 0.516179,1.103364 0.900809,2.263194 1.352485,3.392718 0.970573,2.67189 1.962444,5.34581 2.695376,8.094626 0.803085,-0.205066 1.60617,-0.410131 2.409254,-0.615197 0.04136,0.09289 0.02456,0.299586 0.124069,0.278671 0.09799,-0.0206 -0.0687,-0.188272 -0.09649,-0.284467 -0.161331,-0.55842 -0.278031,-1.129104 -0.437036,-1.688191 -0.452161,-1.815305 -3.019391,-1.175852 -2.567229,0.639453 z" />
    <path
       style="fill:#ff0000"
       id="path803"
       d="m 32.164769,15.941405 c -1.356322,0.0017 -2.94813,0.323822 -3.967431,1.300684 -1.211803,1.161349 -1.307708,1.818888 -1.949841,3.328235 -0.516623,1.912601 -0.567888,3.813503 -0.153821,5.747006 0.218064,1.018256 0.550738,2.067759 1.247726,2.878742 0.38313,0.445792 0.901462,0.754613 1.352192,1.131919 0.52045,0.214913 1.017991,0.497035 1.561351,0.64474 1.726527,0.469335 4.0289,0.147667 5.50146,-0.910273 0.339098,-0.243621 0.605642,-0.574936 0.908463,-0.862403 0.185515,-0.297356 0.420043,-0.569263 0.556545,-0.892068 0.4737,-1.120228 0.276887,-2.256651 -0.579857,-3.132675 -0.564665,-0.577372 -1.064167,-0.668507 -1.781613,-0.923694 -0.376041,-0.0091 -0.755708,-0.08025 -1.128125,-0.02737 -1.217404,0.172855 -2.222113,1.014456 -2.769027,2.092016 -0.468853,0.923761 -0.49987,1.560739 -0.662417,2.550019 0.02056,0.468804 -0.02426,0.945091 0.06167,1.40641 0.325465,1.747266 1.294101,3.348275 3.099487,3.90307 1.738809,0.534335 2.626387,0.01219 4.23934,-0.470954 1.38833,-1.206859 2.248399,-1.628951 2.900677,-3.416925 0.552296,-1.51391 0.532099,-3.178163 0.165472,-4.724042 -0.44763,-1.887428 -1.003794,-2.521524 -1.983842,-4.120373 -0.479939,-0.49979 -0.909879,-1.052942 -1.439816,-1.49937 -1.491279,-1.256276 -4.169306,-2.352852 -6.122657,-1.551853 -0.556656,0.228264 -1.007335,0.658148 -1.511002,0.987222 -0.365399,0.473617 -0.788434,0.907908 -1.096198,1.420852 -1.082151,1.803599 -1.484726,4.130676 -1.209592,6.202435 0.05449,0.41031 0.176834,0.808717 0.265252,1.213076 0.288899,0.68785 0.515403,1.457214 1.113206,1.970417 0.363942,0.312438 0.827604,0.485137 1.241406,0.727706 1.700842,0.77905 2.802585,-1.626305 1.101743,-2.405354 v 0 c -0.0894,0.01208 -0.188183,0.07789 -0.268214,0.03624 -0.306632,-0.159555 -0.485753,-0.671733 -0.611197,-0.928116 -0.06774,-0.267316 -0.158906,-0.529767 -0.203213,-0.801949 -0.242768,-1.491317 0.04091,-3.11983 0.716728,-4.467287 0.152198,-0.303456 0.364873,-0.572596 0.547309,-0.858895 0.154725,-0.169522 0.270886,-0.384806 0.464176,-0.508567 0.4651,-0.297797 1.064136,-0.234393 1.565613,-0.135963 1.32398,0.259871 2.325035,1.007735 3.205822,2.006217 0.310041,0.478901 0.665526,0.931272 0.930124,1.436702 0.68201,1.302761 1.244146,3.22075 0.824864,4.700486 -0.266225,0.939563 -0.843124,1.494781 -1.437039,2.208687 -0.704933,0.278688 -2.199241,0.984099 -2.984452,0.4257 -0.325252,-0.231301 -0.775546,-1.14167 -0.874052,-1.523109 -0.06995,-0.270853 -0.05733,-0.556533 -0.086,-0.8348 0.09623,-0.717263 0.121236,-1.677127 0.687811,-2.228711 0.128089,-0.1247 0.302394,-0.189263 0.461224,-0.260199 0.115164,0.02407 0.230567,0.04702 0.345492,0.07221 0.07519,0.01648 0.147908,0.05596 0.224817,0.05277 0.03826,-0.0016 0.175333,-0.139409 0.238257,-0.0792 0.154616,0.147942 -0.07412,0.457807 -0.110141,0.539625 -0.105071,0.134131 -0.186074,0.291245 -0.315214,0.402393 -0.792142,0.681774 -2.26461,0.91534 -3.263469,0.732998 -0.306876,-0.05602 -0.595948,-0.184641 -0.893922,-0.276961 -0.235977,-0.142743 -0.508101,-0.238155 -0.707933,-0.428228 -0.545699,-0.519051 -0.709247,-1.190099 -0.877829,-1.897749 -0.344143,-1.444595 -0.337271,-2.882289 -0.0047,-4.331245 0.240254,-0.642671 0.501357,-1.565537 0.976295,-2.126163 0.544887,-0.643197 1.496929,-0.826884 2.287523,-0.856028 1.865389,0.141797 2.06592,-2.496262 0.200531,-2.638058 z" />
    <path
       style="fill:#ff0000"
       id="path805"
       d="m 109.72545,33.383456 c 0.86172,-2.365102 1.94447,-4.641533 3.04213,-6.904097 0.38364,-0.844064 0.7973,-1.675532 1.17358,-2.522983 0.10786,-0.2429 0.29468,-0.674183 0.32913,-0.948159 0.0266,-0.211812 0.007,-0.426911 0.01,-0.640367 -0.68816,-1.443783 -0.33455,-1.364579 -2.53082,0.746119 -0.007,0.0066 0.35314,0.720775 0.35786,0.730195 0.83785,1.672658 3.20335,0.487754 2.36549,-1.184904 v 0 c -0.0551,-0.109924 -0.11041,-0.219739 -0.16529,-0.329773 -0.0397,-0.07953 -0.0361,-0.272473 -0.11834,-0.238916 -2.59468,1.058046 -1.94513,2.096263 -2.53722,0.579708 0.0165,-0.09812 0.0295,-0.196901 0.0496,-0.294351 0.006,-0.03061 0.002,0.06381 -0.008,0.09339 -0.0423,0.124186 -0.0944,0.244895 -0.14779,0.364745 -0.37217,0.836249 -0.77922,1.657549 -1.15818,2.490674 -1.15655,2.384819 -2.29812,4.785112 -3.19127,7.283568 -0.54812,1.788674 1.98145,2.563825 2.52956,0.775151 z" />
    <path
       style="fill:#ff0000"
       id="path807"
       d="m 110.06583,28.009034 c 1.34013,0.569738 3.03519,1.547072 4.54307,1.331296 0.38859,-0.05561 0.75073,-0.229706 1.1261,-0.344559 0.29109,-0.221944 0.6514,-0.374687 0.87326,-0.665831 0.3081,-0.404287 0.55327,-0.873652 0.67584,-1.366951 0.38223,-1.538296 -0.14899,-3.738277 -0.62843,-5.206038 -0.17146,-0.524908 -0.39946,-1.029629 -0.59919,-1.544444 -0.58936,-1.172043 -1.24486,-2.41817 -2.39806,-3.143307 -0.30666,-0.192829 -0.64142,-0.374742 -1.00015,-0.425073 -0.41721,-0.05854 -0.88047,-0.07634 -1.25926,0.108074 -0.43963,0.214035 -0.70358,0.679206 -1.05537,1.018809 -0.0542,0.519447 -0.20989,1.038209 -0.16269,1.558343 0.0412,0.453977 0.22953,0.887586 0.42213,1.300745 0.60395,1.295625 1.69029,2.37475 3.04174,2.871235 0.4516,0.165908 0.94285,0.192165 1.41427,0.288248 0.46159,-0.04776 0.93706,-0.02123 1.38477,-0.143295 1.36278,-0.371562 2.6134,-1.561247 2.59416,-3.077172 -0.022,-1.732907 -0.74103,-2.115086 -1.79247,-3.350834 -0.53846,-0.374971 -1.03909,-0.811192 -1.61539,-1.124913 -1.79841,-0.97899 -4.64605,-1.55345 -6.50647,-0.3756 -0.40257,0.254871 -0.6879,0.659449 -1.03185,0.989173 -0.15272,0.432314 -0.40345,0.841721 -0.45814,1.29694 -0.1632,1.358235 0.90919,3.081325 2.16282,3.601115 0.32164,0.13336 0.68007,0.149842 1.0201,0.224763 0.95453,-0.379566 1.50338,-0.310696 1.72726,-1.496211 0.0665,-0.352158 0.0939,-0.816971 -0.16763,-1.061999 -1.16231,-1.088956 -2.11609,-0.962074 -2.76754,0.399464 -0.20174,0.421661 -0.0854,0.930973 -0.12808,1.396459 0.10203,0.453783 0.15128,0.92276 0.3061,1.361349 0.50163,1.42103 1.46435,2.600192 2.81727,3.284839 0.39283,0.198791 0.81169,0.393917 1.25093,0.423881 0.53296,0.03636 1.0573,-0.15357 1.58596,-0.230355 0.39244,-0.326944 0.97869,-0.510249 1.17734,-0.98083 1.04678,-2.479785 -1.37304,-4.445814 -3.35344,-5.261388 -0.38309,-0.157768 -0.79417,-0.236439 -1.19126,-0.354659 -0.35079,-0.02464 -0.70334,-0.116735 -1.05238,-0.07392 -1.01442,0.124421 -1.73987,0.624102 -1.69195,1.908367 0.0345,0.924256 1.09166,1.408143 1.76934,1.655535 0.27007,0.09859 0.56022,0.129507 0.84033,0.194261 0.44708,-0.114721 0.9519,-0.09626 1.34123,-0.344162 0.76223,-0.485336 1.24198,-1.570181 0.84109,-2.456581 -0.20891,-0.461907 -0.61757,-0.906209 -1.10523,-1.044731 -1.34939,-0.383302 -1.78487,0.427051 -2.51653,1.180257 -0.15222,0.49953 -0.42214,0.977523 -0.45665,1.498588 -0.10353,1.563509 0.77349,3.323484 2.03441,4.235904 0.38972,0.28201 0.83195,0.542899 1.30847,0.608801 0.52325,0.07236 1.04709,-0.140418 1.57063,-0.210626 0.36499,-0.378535 0.84519,-0.672879 1.09498,-1.135604 0.89647,-1.6607 -0.20682,-3.962176 -1.50744,-5.048912 -0.32666,-0.272938 -0.72496,-0.446345 -1.08744,-0.669518 -0.39592,-0.08705 -0.78239,-0.263876 -1.18775,-0.261141 -1.15589,0.0078 -2.33695,0.782229 -2.59478,1.958651 -0.079,0.360368 -0.1388,0.767186 0.005,1.106751 0.18178,0.428015 0.60847,0.703364 0.91271,1.055047 0.5691,-0.0776 1.19451,0.02593 1.70729,-0.232812 0.69616,-0.351281 0.82313,-1.347871 0.98501,-1.977011 0.36937,-1.833943 -2.22422,-2.356317 -2.59359,-0.522374 v 0 c 1.9e-4,0.08956 -0.0588,0.201613 5.6e-4,0.268686 0.27443,0.310129 1.48807,-1.739117 1.22982,0.175917 0.11867,0.243867 0.30303,0.465619 0.35601,0.731601 0.18,0.903641 -0.14673,0.321381 -0.20221,0.278289 -0.001,-0.0011 -0.30066,-0.127269 -0.18743,-0.22468 0.0712,-0.06124 0.1851,-0.03186 0.27764,-0.04778 0.73319,0.317955 0.9646,0.506794 1.35853,1.230708 0.004,0.0078 0.25629,0.64688 0.32865,0.707537 0.0735,0.06162 0.18099,0.06359 0.27149,0.09538 0.0646,0.08194 0.26705,0.171432 0.19386,0.245803 -0.0942,0.09575 -0.28243,0.02735 -0.40152,-0.03481 -0.78868,-0.41168 -1.18756,-1.351208 -1.3574,-2.171383 0.0557,-0.561351 0.0506,0.192866 -0.64108,-0.434357 -0.68549,-0.621594 -0.28328,-1.624916 0.56198,-1.151259 -0.13909,-0.02277 -0.2769,-0.05561 -0.41727,-0.06831 -0.0624,-0.0057 -0.17721,-0.04825 -0.18763,0.01358 -0.0317,0.188071 0.16318,0.388819 0.0902,0.565013 -0.15879,0.383233 -0.43545,0.718622 -0.73914,1.001213 -0.0733,0.06823 -0.391,0.0021 -0.29832,-0.03583 0.13509,-0.0553 0.2916,-0.01407 0.4374,-0.02111 0.6754,0.16623 0.9153,0.178563 1.54889,0.546676 0.26825,0.155851 0.51133,0.352328 0.75414,0.545443 0.17211,0.136892 0.27203,0.405959 0.48879,0.443117 0.19356,0.03318 0.32788,-0.257433 0.52389,-0.269511 0.0795,-0.0049 0.0318,0.156193 0.0477,0.23429 -0.18178,0.397351 -0.0655,0.353936 -0.72748,0.107447 -0.79771,-0.297036 -1.3136,-0.926796 -1.65014,-1.690638 -0.10167,-0.230739 -0.14958,-0.48159 -0.22437,-0.722385 -0.39613,-0.665279 0.31414,0.354532 -0.82743,0.0955 -0.50223,-0.113957 -0.98525,-0.402442 -1.33147,-0.783691 -0.31694,-0.349004 0.15372,-0.984028 0.42556,-1.114984 0.18861,-0.09086 0.41686,-0.03918 0.62529,-0.05877 0.0546,0.05311 0.23849,0.144443 0.16379,0.159328 -0.24053,0.04793 -0.92482,-0.694465 -1.08936,-0.913168 0.10881,-0.426683 0.0295,-0.412124 0.65914,-0.601964 1.12271,-0.338509 2.37901,-0.05227 3.40241,0.453091 0.41445,0.204657 0.77906,0.497667 1.1686,0.746501 0.23051,0.197213 0.89928,0.700621 1.1126,1.058294 0.39082,0.655287 -0.45291,1.020375 -0.95018,1.084591 -0.92547,-0.07241 -1.28738,-0.12568 -1.95251,-0.852722 -0.17346,-0.189611 -0.31618,-0.406367 -0.45231,-0.624334 -0.10122,-0.162062 -0.12372,-0.375698 -0.25749,-0.512136 -0.0573,-0.0584 -0.16358,-5.07e-4 -0.24536,-7.61e-4 -0.17962,0.04325 -0.60867,0.260167 -0.77239,-0.04003 -0.0312,-0.05722 0.13569,-0.04571 0.1947,-0.01804 0.17115,0.08027 0.32979,0.193145 0.46353,0.326741 0.56779,0.567138 0.73348,1.005179 1.13081,1.723156 0.17037,0.426788 0.36416,0.844959 0.51113,1.280364 0.32502,0.962949 0.49209,1.7349 0.62952,2.733275 0.0388,0.281712 0.0368,0.567752 0.0682,0.850378 0.0112,0.100547 0.0697,0.196953 0.0595,0.29761 -0.008,0.07475 -0.0729,0.131383 -0.1094,0.197074 -0.0419,0.0519 -0.0619,0.136095 -0.12561,0.155693 -0.30739,0.09452 -0.82423,-0.01956 -1.09447,-0.100239 -0.78934,-0.235669 -1.53093,-0.622814 -2.28278,-0.951162 -1.6728,-0.837554 -2.85728,1.528155 -1.18447,2.365708 z" />
    <path
       style="fill:#ff0000"
       id="path809"
       d="m 107.59747,42.568074 c 0.34011,-2.478582 0.69271,-4.955344 1.01343,-7.436584 0.22964,-1.677343 0.45635,-3.361828 0.80682,-5.019582 -0.88206,-0.11739 -1.75935,-0.425369 -2.64617,-0.352168 -0.2,0.01651 -0.10448,0.3876 -0.15024,0.582994 -0.32175,1.37386 -0.59209,2.760092 -0.85181,4.14669 -0.23555,1.340239 -0.51926,2.674265 -0.72924,4.018914 0.81673,0.290914 1.58881,0.774166 2.45018,0.872741 0.20706,0.0237 0.19957,-0.367061 0.2767,-0.560677 0.11809,-0.296452 0.20879,-0.603129 0.30775,-0.906505 0.4034,-1.236767 0.7686,-2.485066 1.12908,-3.734809 0.22162,-0.797445 0.36699,-1.339708 0.60113,-2.11578 0.0902,-0.298947 0.16654,-0.718405 0.39159,-0.982153 0.0164,-0.01919 0.17135,-0.04487 0.19121,-0.04868 0.0492,-0.01734 0.0984,-0.03468 0.14762,-0.05202 1.69972,-0.781505 0.5945,-3.185266 -1.10522,-2.40376 v 0 c -0.16311,0.08028 -0.32621,0.160559 -0.48932,0.240839 -0.54497,0.398207 -0.70284,0.44082 -1.08728,1.034808 -0.66611,1.029203 -0.77694,2.462882 -1.19185,3.593815 -0.35057,1.216491 -0.71452,2.427295 -1.0978,3.633907 -0.0704,0.221786 -0.14602,0.441957 -0.21397,0.664519 -0.0114,0.03746 -0.0591,0.09744 -0.0241,0.115024 0.76054,0.381959 1.55355,0.695492 2.33033,1.043238 0.18429,-1.316078 0.50203,-2.61509 0.71366,-3.9267 0.19865,-1.062164 0.41167,-2.11923 0.64045,-3.1753 0.0577,-0.266563 0.11159,-0.534002 0.17328,-0.799681 0.0403,-0.173759 0.28582,-0.426779 0.13277,-0.518411 -0.75723,-0.453374 -1.66145,-0.596145 -2.49217,-0.894217 -0.34124,1.723564 -0.61801,3.46066 -0.83728,5.203842 -0.3227,2.497236 -0.67917,4.989731 -1.0192,7.48458 -0.20584,1.859411 2.42376,2.150524 2.62961,0.291113 z" />
    <path
       style="fill:#ff0000"
       id="path813"
       d="m 64.858057,83.863807 c 1.071034,-0.391603 2.061681,-0.960705 2.999111,-1.603674 0.586085,-0.399614 1.101919,-0.886448 1.605931,-1.382361 0.860303,-0.982569 0.771803,-0.540383 -1.444283,-2.361545 -0.102914,-0.08457 -0.23085,0.133028 -0.34469,0.202198 -0.136205,0.08276 -0.270245,0.169029 -0.405368,0.253544 -0.920892,0.628224 -1.873274,1.208638 -2.843044,1.757909 -0.490729,0.307824 -1.024672,0.516737 -1.554719,0.738816 -0.313723,0.118027 -0.558729,0.337688 -0.793387,0.567709 -1.272933,1.370921 0.665843,3.17112 1.938775,1.800198 v 0 c -0.05106,0.03769 -0.337069,0.189614 -0.0952,0.0604 0.604321,-0.283434 1.246751,-0.494335 1.810435,-0.866215 1.002231,-0.569857 1.990226,-1.166038 2.942185,-1.817074 0.115545,-0.0726 0.230438,-0.146241 0.346636,-0.217787 0.07959,-0.04901 0.280792,-0.05942 0.240694,-0.143844 -1.085622,-2.28583 -0.881825,-2.82487 -1.654317,-1.859458 -0.394326,0.388621 -0.793138,0.775904 -1.251771,1.089622 -0.748409,0.519948 -1.542696,0.977362 -2.399734,1.294673 -1.758497,0.638336 -0.855754,3.125226 0.902742,2.486891 z" />
    <path
       style="fill:#ff0000"
       id="path815"
       d="m 55.605725,64.030384 c 0.766137,0.853947 1.537321,1.704015 2.32269,2.540232 0.426159,0.489154 0.908287,0.904354 1.462551,1.237904 1.625512,0.92601 2.935088,-1.37281 1.309576,-2.298821 v 0 c -0.352799,-0.140429 -0.56759,-0.518337 -0.845092,-0.751843 -0.765979,-0.812797 -1.51437,-1.642751 -2.261529,-2.472936 -1.234229,-1.405867 -3.222425,0.339597 -1.988196,1.745464 z" />
    <path
       style="fill:#ff0000"
       id="path817"
       d="m 66.379894,60.801784 c 1.763229,0.515987 3.533013,1.007527 5.316706,1.447715 0.9429,0.258129 0.500256,0.13202 1.328792,0.375299 1.79519,0.526379 2.539603,-2.012403 0.744413,-2.538782 v 0 c -0.8968,-0.262618 -0.417251,-0.126428 -1.439603,-0.405196 -1.763268,-0.434715 -3.512132,-0.922456 -5.255266,-1.431776 -1.80506,-0.491469 -2.500102,2.061271 -0.695042,2.55274 z" />
    <path
       style="fill:#800000"
       id="path819"
       d="m 64.516089,80.940849 c -1.064377,-0.0042 -2.125467,0.104041 -3.186658,0.175601 -0.597071,0.0394 -1.195268,0.05378 -1.793445,0.06161 0.0356,0.882279 -0.0695,1.781618 0.106792,2.646837 0.0029,0.01439 2.008046,5.34e-4 2.990571,10e-5 0.930139,0.04517 1.84039,-0.02271 2.741967,-0.250393 0.616631,-0.163844 1.171813,-0.465562 1.705552,-0.805684 0.50659,-0.386334 0.96123,-0.833452 1.435501,-1.257839 0.211331,-0.107441 0.891917,-0.941958 1.015929,-0.972609 0.06063,-0.05215 0.122028,-0.103425 0.181899,-0.156446 0.118675,-0.105098 0.529184,-0.489502 0.355268,-0.299195 0.284634,-0.141726 0.473843,-0.339018 0.696395,-0.563942 1.166804,-1.462311 -0.901216,-3.112419 -2.06802,-1.650108 v 0 c 0.361993,-0.32183 0.228311,-0.210247 0.1555,-0.135547 -0.358059,0.202937 -0.679779,0.443044 -0.969637,0.736011 -0.397295,0.336811 -0.731701,0.734388 -1.131547,1.070258 -0.367827,0.32914 -0.73417,0.663015 -1.093616,0.998599 -0.295637,0.188583 -0.591245,0.374644 -0.933413,0.471971 -0.688579,0.175403 -1.380067,0.206987 -2.092947,0.169255 -0.851025,3.76e-4 -1.702052,0.0011 -2.553078,5.92e-4 -0.133913,-7.5e-5 -0.376452,-0.13197 -0.40174,-4.66e-4 -0.166568,0.866195 -0.07108,1.762698 -0.106618,2.644047 0.645978,-0.0085 1.291961,-0.0247 1.936728,-0.06738 1.003392,-0.06769 2.006718,-0.171557 3.012981,-0.169607 1.870768,-0.0031 1.866404,-2.648752 -0.0044,-2.645666 z" />
  </g>
</svg>
